<svg width="1em" height="1em" viewBox="0 0 512 512" fill="none" xmlns="http://www.w3.org/2000/svg">
    <path d="M513 123.534C512.542 124.791 511.9 125.529 511.655 126.381C509.533 133.764 505.474 139.905 500.072 145.306C399.545 245.803 299.047 346.329 198.522 446.827C186.153 459.193 170.918 459.098 158.453 446.639C110.365 398.575 62.3228 350.464 14.197 302.438C8.14494 296.399 3.92244 289.441 1.35579 281.11C1 275.978 1 270.956 1 265.467C5.91369 248.521 19.2193 238.537 30.6054 227.169C46.82 210.98 70.5575 211.051 86.8629 227.242C116.176 256.35 145.321 285.628 174.51 314.861C175.79 316.142 176.805 317.688 178.75 320.118C180.443 317.807 181.358 316.15 182.644 314.863C263.419 234.035 344.223 153.236 425.027 72.4371C443.98 53.4858 466.663 53.4758 485.63 72.4029C490.701 77.4623 495.763 82.5298 500.822 87.6006C506.726 93.5188 510.709 100.481 512.639 108.875C513 113.689 513 118.378 513 123.534Z" fill="currentColor"/>
</svg>
