<svg width="1em" height="1em" viewBox="0 0 512 512" fill="none" xmlns="http://www.w3.org/2000/svg">
<path d="M168.99 481C150.663 481 132.835 481.03 115.007 480.993C85.9227 480.933 65.0219 460.172 65.0137 431.186C64.9807 315.051 64.9801 198.917 65.0141 82.7818C65.0226 53.8057 85.9449 33.0487 115.025 33.0056C134.686 32.9764 154.347 32.992 174.008 33.0017C204.474 33.0168 224.993 53.4427 224.996 83.8045C225.006 199.106 225.003 314.408 224.998 429.709C224.996 460.762 204.668 480.99 173.486 481C172.153 481 170.82 481 168.99 481Z" fill="currentColor"/>
<path d="M289 190C289 153.51 288.912 117.52 289.033 81.5301C289.11 58.6077 303.742 40.0061 325.953 34.5025C330.097 33.4756 334.493 33.0959 338.777 33.0647C358.77 32.9189 378.765 32.9784 398.76 33.005C428.175 33.0441 448.982 53.7292 448.989 83.0561C449.015 199.024 449.017 314.992 448.988 430.959C448.981 460.275 428.158 480.953 398.736 480.995C379.075 481.022 359.413 481.012 339.752 480.997C309.667 480.975 289.012 460.417 289.006 430.433C288.989 350.455 289 270.477 289 190Z" fill="currentColor"/>
</svg>
