<svg width="1em" height="1em" viewBox="0 0 512 512" fill="none" xmlns="http://www.w3.org/2000/svg">
<path d="M130.645 6.11863C154.618 -4.83569 177.671 -1.05613 196.066 17.2555C262.431 83.319 328.73 149.45 394.901 215.708C418.205 239.043 418.429 272.456 395.192 295.756C328.813 362.315 262.246 428.687 195.573 494.952C179.534 510.893 160.067 516.035 138.435 508.764C117.099 501.593 104.524 486.152 101.152 463.978C98.6055 447.229 103.584 432.294 114.882 419.62C118.591 415.46 122.681 411.636 126.633 407.693C175.841 358.598 225.056 309.51 274.263 260.415C275.64 259.041 276.953 257.604 278.576 255.903C276.911 254.162 275.482 252.605 273.988 251.114C221.977 199.219 169.905 147.384 117.966 95.4176C92.384 69.8224 95.4303 30.1022 124.305 9.95769C126.217 8.62357 128.292 7.52167 130.645 6.11863Z" fill="currentColor"/>
</svg>
